<svg viewBox="0 0 164 36" fill="currentColor" xmlns="http://www.w3.org/2000/svg" class="register__logo" style="width: 164px; height: 164px;"><path d="M46.516 22.733c2.123 0 3.52-.994 4.189-2.983l2.754.717c-.383 1.511-1.224 2.726-2.525 3.643-1.281.919-2.754 1.378-4.418 1.378-2.084 0-3.863-.698-5.336-2.095-1.453-1.415-2.18-3.222-2.18-5.422 0-2.18.727-3.978 2.18-5.393 1.473-1.415 3.252-2.123 5.336-2.123 1.626 0 3.08.459 4.361 1.377 1.281.899 2.142 2.104 2.582 3.615l-2.869.832c-.268-1.014-.765-1.78-1.492-2.296-.727-.516-1.587-.774-2.582-.774-1.32 0-2.419.45-3.299 1.348-.86.88-1.29 2.018-1.29 3.414 0 1.435.43 2.592 1.29 3.471.86.861 1.96 1.291 3.3 1.291zm18.193-12.278c1.702 0 3.08.564 4.131 1.693 1.052 1.109 1.578 2.553 1.578 4.331v8.607h-3.012v-8.004c0-1.167-.316-2.104-.947-2.812-.612-.707-1.425-1.061-2.439-1.061-1.32 0-2.361.45-3.126 1.348-.746.9-1.12 2.219-1.12 3.96v6.569h-2.983V4.43h2.984v8.177c1.205-1.435 2.85-2.152 4.934-2.152zm23.814.402v14.229h-2.984V23.45c-1.3 1.358-3.021 2.037-5.163 2.037-1.932 0-3.596-.698-4.992-2.095-1.377-1.415-2.066-3.222-2.066-5.422 0-2.18.698-3.978 2.094-5.393 1.397-1.415 3.051-2.123 4.963-2.123 2.143 0 3.864.679 5.164 2.037v-1.636h2.984zm-7.66 11.991c1.243 0 2.334-.45 3.27-1.348.938-.918 1.406-2.094 1.406-3.529 0-1.434-.468-2.6-1.405-3.5-.938-.918-2.028-1.377-3.27-1.377-1.34 0-2.449.45-3.329 1.349-.88.88-1.32 2.056-1.32 3.528 0 1.473.44 2.659 1.32 3.558.88.88 1.99 1.32 3.328 1.32zm20.73-.947l.918 2.496c-1.224.727-2.4 1.09-3.529 1.09-1.587 0-2.84-.44-3.758-1.32-.918-.898-1.377-2.208-1.377-3.93v-6.913h-3.07v-2.467h3.07V6.439h2.984v4.418h4.877v2.467h-4.877v6.713c0 .86.21 1.52.63 1.98.421.44.995.66 1.722.66.822 0 1.626-.26 2.41-.776zm11.678-8.577h-4.734v11.762h-2.983V13.324h-2.324v-2.467h2.324V9.164c0-1.588.478-2.84 1.434-3.758.956-.937 2.228-1.406 3.816-1.406.841 0 1.654.172 2.438.516l-.717 2.439a4.203 4.203 0 00-1.521-.287c-.746 0-1.348.22-1.807.66-.44.44-.66 1.052-.66 1.836v1.693h4.734v2.467zm2.965-.689c1.492-1.396 3.308-2.094 5.45-2.094 2.143 0 3.94.698 5.394 2.094 1.473 1.377 2.209 3.156 2.209 5.336s-.736 3.969-2.209 5.365c-1.473 1.396-3.271 2.094-5.394 2.094-2.142 0-3.958-.698-5.45-2.094-1.473-1.396-2.209-3.184-2.209-5.365 0-2.18.736-3.959 2.209-5.336zm5.45 10.213c1.263 0 2.363-.45 3.3-1.348.937-.918 1.405-2.094 1.405-3.529 0-1.434-.468-2.6-1.405-3.5-.937-.918-2.037-1.377-3.3-1.377-1.3 0-2.419.46-3.356 1.377-.918.9-1.377 2.066-1.377 3.5 0 1.435.459 2.61 1.377 3.529.937.899 2.056 1.348 3.356 1.348zm11.92-10.213c1.491-1.396 3.308-2.094 5.45-2.094 2.142 0 3.94.698 5.394 2.094 1.472 1.377 2.209 3.156 2.209 5.336s-.737 3.969-2.209 5.365c-1.473 1.396-3.271 2.094-5.394 2.094-2.142 0-3.959-.698-5.45-2.094-1.473-1.396-2.209-3.184-2.209-5.365 0-2.18.736-3.959 2.209-5.336zm5.45 10.213c1.263 0 2.362-.45 3.3-1.348.937-.918 1.405-2.094 1.405-3.529 0-1.434-.468-2.6-1.405-3.5-.938-.918-2.037-1.377-3.3-1.377-1.3 0-2.419.46-3.356 1.377-.918.9-1.377 2.066-1.377 3.5 0 1.435.459 2.61 1.377 3.529.937.899 2.056 1.348 3.356 1.348zM164 4.43v20.656h-3.012v-1.607c-1.339 1.34-3.06 2.009-5.164 2.009-1.913 0-3.567-.708-4.963-2.123-1.396-1.416-2.095-3.213-2.095-5.394 0-2.18.699-3.978 2.095-5.393 1.396-1.415 3.05-2.123 4.963-2.123 2.123 0 3.844.679 5.164 2.037V4.43H164zm-7.688 18.418c1.243 0 2.333-.45 3.27-1.348.937-.899 1.406-2.075 1.406-3.529 0-1.434-.469-2.6-1.406-3.5-.937-.918-2.027-1.377-3.27-1.377-1.32 0-2.42.45-3.3 1.349-.879.899-1.319 2.075-1.319 3.528 0 1.473.44 2.659 1.319 3.558.88.88 1.98 1.32 3.3 1.32z" fill="#071C4C"></path><path d="M12.396 35.306V27.71S0 25.921 0 13.855C0 6.207 6.146.167 13.724.004c7.237-.154 13.08 4.842 14.167 12.066.5 3.319-.777 7.302-2.656 9.831-5.313 7.15-12.839 13.406-12.839 13.406z" fill="#1258FF"></path><circle cx="14" cy="13.965" r="7" fill="#fff"></circle></svg>